<svg width="24" height="24" viewBox="0 0 24 24" fill="none" xmlns="http://www.w3.org/2000/svg">
  <path d="M22.501 12.2271C22.501 11.4153 22.4296 10.8235 22.2748 10.2076H12.2153V14.0062H18.12C18.001 14.9389 17.3582 16.3859 15.9296 17.3428L15.9096 17.4709L19.0526 19.9263L19.2297 19.9437C21.2045 18.1415 22.501 15.4463 22.501 12.2271Z" fill="#4285F4"/>
  <path d="M12.214 22.4996C15.1068 22.4996 17.5354 21.5567 19.2283 19.9435L15.9282 17.3426C15.0235 17.9728 13.8092 18.4283 12.214 18.4283C9.38069 18.4283 6.9664 16.5838 6.11877 13.9814L5.99673 13.9901L2.72645 16.5428L2.69141 16.6592C4.37307 20.0911 8.03452 22.4996 12.214 22.4996Z" fill="#34A853"/>
  <path d="M6.12096 13.9814C5.93453 13.3654 5.8239 12.7132 5.8239 12.0371C5.8239 11.361 5.93453 10.7088 6.10668 10.0928L6.10081 9.95654L2.78454 7.35791L2.69359 7.41496C1.96168 8.78979 1.5491 10.3623 1.5491 12.0371C1.5491 13.7119 1.96168 15.2844 2.69359 16.6592L6.12096 13.9814Z" fill="#FBBC05"/>
  <path d="M12.214 5.64578C14.2245 5.64578 15.583 6.54315 16.3592 7.27065L19.283 4.4335C17.5282 2.80962 15.1068 1.57446 12.214 1.57446C8.03452 1.57446 4.37307 3.98298 2.69141 7.41489L6.1045 10.0927C6.9664 7.49033 9.38069 5.64578 12.214 5.64578Z" fill="#EB4335"/>
</svg> 